/* XPM */
static char *_b0736e8a6b64cc5fa13fd6a77eaf99bTBxLNUmOH0UOqQnn[] = {
/* columns rows colors chars-per-pixel */
"10 10 3 1 ",
"  c #040301",
". c #050402",
"X c #060503",
/* pixels */
"..    ....",
"..    ....",
"..    ....",
"..    ....",
"..    ....",
"..    ....",
"..    ....",
"..    ....",
".X.. .....",
"XX........"
};
