/* XPM */
static char *ef513592f6b44cb8f0fa1e53097b0cd4BkXoBB1vGAKwS54f[] = {
/* columns rows colors chars-per-pixel */
"50 50 15 1 ",
"  c #020100",
". c #030200",
"X c #030102",
"o c gray1",
"O c #040301",
"+ c #040203",
"@ c #040402",
"# c #050402",
"$ c #050503",
"% c #060503",
"& c #050304",
"* c #040404",
"= c #060405",
"- c #070604",
"; c #070506",
/* pixels */
"********ooooooooOOOO####OOOO####----O---OO--O---OO",
"********ooooooooOOOO####OOOO####OOO-O--O---O--O-#O",
"********ooooooooOOOO####OOOO####O-O--------O-O-O#*",
"********ooooooooOOOO####OOOO####O-OO-OO-OO---O--#*",
"********ooooooooOOOO########OOOOOO--O---O-OO-OO-##",
"********ooooooooOOOO########OOOO-OOOO-OOOO-O-OO-*#",
"********ooooooooOOOO########OOOO-O-O-O----OOOOOO#*",
"********ooooooooOOOO########OOOOOOOO-OO-OOO-O--O#-",
"****************OOOO############ooOOO-OO---------*",
"****************OOOO############OOOOOO-OOOOOOOOO*-",
"****************OOOO############OOOO--OOOOO-O--O$$",
"****************OOOO############OOO-OOO-O-O-OOOO$$",
"****************####OOOOOO####*-OOOOOOOOOO-OOO--$$",
"****************####OOOOOOO###-#OOOOOO---O-O-OOO$$",
"****************####OOOOOOO##-#-O-OOOOOOO-OO-OOO$$",
"****************####OOOOOO####-#-OOOOO-OOOOOOOOO$$",
"OOOOOO##########OOOOOOOO########O---OOOO--OOOO---O",
"################OOOOOOOOOO######--OOOOOOOOO--OOO--",
"########OOOOOOOOOOOOOOOOOOO#####-O-O-OOOOOO--OOOO-",
"########OOOOOOOOOOOOOOOOOOOO####--OOOOOO--OOOO--O-",
"########OOOOOOOOOOOOOOOOOOOO####OO---OOOOO-OO-OOOO",
"########OOOOO#OOOOOOOOOOOOOO####-OOOOO--O-OOOO-O-O",
"################OOOOOOOOOOOOOO##-OOOO-OOOO----OOOO",
"#-###-##########OOOOOOOOOOOOOOOOOO--OO-O-OOOOOO---",
"###########OOO##OOOOOOOOOOOOOOOOOOOO-OO--OOOOOO--O",
"###########OOO##OOOOOOOOOOOOOOOOO--O-OO-OO----OO--",
"#########-##OOOOOOOOOOOOOOOOOOOOOOOOOOOOO-OOOO-OOO",
"########-####OOOOOOOOOOOOOOOOOOOOO--O---OO-OO-OO--",
"########-#-##OOOOOOOOOOOOOOOOOOOOOOO-OOO--OOOO--O-",
"###########-##OOOOOOOOOOOOOOOOOOO--OOO--OOO--OOO--",
"###########-#-#OOOOOOOOOOOOOOOOOOOOOO-O-OOO--OOO-O",
"##########-#-##OOOOOOOOOOOOOOOOOOO--OOO---OOOO-O--",
"&O&&&&O&&&&;&;&;OOOOOOOOOOOOOOOOOOOO-OOO-OO-OOO-O-",
"*&&&&&&&;&;&;&;&OOOOOOOOOOOOOOOOOOOOOO-O-OO-O-OOO-",
"&&&&&&&&&;&;&;&;OOOOOOOOOOOOOOOOOOOOO-O-OOOO-O-OOO",
"&&&&&&&&;&;&;&;&OOOOOOOOOOOOOOOOOOOOO-OOO--OOO-O-O",
"&&&&&&&&&;&;&;&;OOOOOOOOOOOOOOOOOOOOOO-OOO-OOO-O-O",
"&&&&&&&&;&;&;&;&OOOOOOOOOOOOOOOOOOOOOOOOOOOO----OO",
"&&&&&&&&&;&;&;&;OOOOOOOOOOOOOOOOOOOOOO--OOO-O-O-O-",
"&&;&;&;&;&;&;&;&OOOOOOOOOOOOOOOOOOOO-OOOOOOOO-O-OO",
"&;&;&;&;&&&&&&&&OOOOOOOOOOOOOOOOOOOOOOOOOO-O---O--",
";&;&;&;&&&&&&&&&OOOOOOOOOOOOOOOOOOOOOOOOO-OO-O--O-",
"&;&;&;&;&&&&&&&&OOOOOOOOOOOOOOOOOOOOOOOOOO--O-O-O-",
";&;&;&;&&&&&&&&&OOOOOOOOOOOOOOOOOOOOOOOO-OOO--O---",
"&;&;&;&;&&&&&&&&OOOOOOOOOOOOOOOOOO-OO-OOO--O--O--O",
";&;&;&;&&&&&&&&&OOOOOOOOOOOOOOOO-O-OO-O-OOOOO-O--O",
"&;&;&;&;&&&&&&&&OOOOOOOOOOOOOOOOO-OOOO-O-OO--O----",
";&;&;&;&&&&&&&&&OOOOOOOOOOOOOOOoOOO--OOO-OOO---OO;",
"&;&;&;&;&&&&&&&&&+ooooooooo&&&&&-&&&;&;&&&&&;&;&;;",
";&;&;&;&&&&&&&&&++o+ooooo+o&&&&&;&&&&;&&&&&&&;&;&;"
};
