/* XPM */
static char *a120c46b35ee4f4daa148d77a30f0fd914t3c4KS5aeKlifQ[] = {
/* columns rows colors chars-per-pixel */
"10 10 3 1 ",
"  c #040301",
". c #050402",
"X c #060503",
/* pixels */
"    ......",
"    ......",
"    ......",
"    ......",
"....    ..",
"....    ..",
"....    ..",
"....    ..",
"..    ...X",
"..    ...."
};
