/* XPM */
static char *_2eeeeb049a641458d987bc87b5eb1ebAghKvLZ7d41wMSQ0[] = {
/* columns rows colors chars-per-pixel */
"50 50 34 1 ",
"  c #A0A29E",
". c #A4A5A2",
"X c #A7A8A3",
"o c #AAA9A6",
"O c #ACACA9",
"+ c #B1AFAC",
"@ c #AFB0AB",
"# c #B2B2AE",
"$ c #B4B5B1",
"% c #B7B9B3",
"& c #B9BAB6",
"* c #BDBDBA",
"= c #C0BFBD",
"- c #BFC0BB",
"; c #C1C1BE",
": c #C5C5C2",
"> c #C8C7C4",
", c #C7C8C4",
"< c #C9CAC6",
"1 c #CDCDCA",
"2 c #D0CFCD",
"3 c #CFD0CB",
"4 c #D1D1CE",
"5 c #D5D5D2",
"6 c #D8D7D4",
"7 c #D7D8D4",
"8 c #D9DAD6",
"9 c #DDDDDA",
"0 c #E0DFDD",
"q c #DFE0DB",
"w c #E1E1DE",
"e c #E4E4E2",
"r c #E7E9E5",
"t c #E8E8E5",
/* pixels */
"998q788877q78777753444444422442211455114114111111,",
"w97775775555537qrrwq651<;**&&&***=1509851,=*$$$#O#",
"wtq7q;555543334qrwrweeteee61****=*18000009095&O..#",
"wtw8775553333337wrrrteeee458:***==500000000551OOO#",
"qrrq7q7733331334qwrreet01<885=***:50e99e958555#..#",
"qrrrr;7;33113131qweere8::58882=**1909e99555555;OO#",
"rrrrq77753333<114qwee5:,188888<*=40009955555551.O#",
"qrrr73775535331137eq33578588888::50085558555555$O#",
"qrrq7;q67q6755441595888855585855189555555547734,.$",
"rrr768867;55557799588888524444555555555557777774O$",
"qrq7;q557457888q55098585221111111811455555543754&$",
"qq7765566q8q8q88450e9855221111:=497*=:,154747345:$",
"wq66686qq9qq77q4159ee9551111:=::5er,&*&--,,344555$",
"wqqqqqqqqq8q7q7;118err941::==:=18rr8**&&----;1335,",
"wwqqqqqq888887;7118eeee5:===:::4wrre,;;;;------;,1",
"qwqqqqq898q85;3;1159eee5:==:=::5err7,,::::::,;,,,1",
"wew999999894,1111119rrr8<==:::15rtw1::::::::,,,32=",
"wrew9999995111,11115err84=:=:=19re2:::,::::,,1451$",
"weeew999951:1:1,11150ee55:=:=:5er9:::,::::114555$$",
"weeer999511,11,111110ee551:=:15ee1:,,:,:11155453O$",
"wereee9811,11,11:1115ee5551=:19e5,,:,,,31554545*o$",
"9eeeee9111,1,1,,11:15ee5551=:4ee,,,,,3455545554Oo$",
"qeeeee9141111111:11:49e5555::5e1,,145555555554;X.$",
"qeeee04411111111111115e45451188:14555555555555#X.$",
"qweee7331111411411115595555449115585555554555<oo.$",
"qeqee3331141141121595485555545588855575555555$o..$",
"qweeq333151141415999=9054544:9998855555545541OoX.$",
"9www3333111111589091:9e55551=599909987557455*Xoo.$",
"qqqq333311115590999$50e9555:$599099998q87743OooX.$",
"qqq533<31459909990*$800e555:O19999998888q77<#oo..&",
"qqq333334599099095.:9000955=.:5999999978qq3,;Ooo.&",
"qq333337990009909&O10e00952*O$599988997q73,-:;O. &",
"qq<3;qqqqqqqqq7q:o+6ee0ee85$oO19098908882:::::=O.*",
"55358qqqqqq8qq87+o:8e0ee005$oo:8989888821::::::=o$",
"88qqqqqqqqqqqqq;oO20ee000e6+oo*509898821::::::::=*",
"88876q6qqqqqqq;@o+50eeeee00OooO58998851:1::1::::::",
"77776667557686;Xo=6eweww008&ooo1699821:11:<:11111:",
"7847668q657776;+O<00eww09851*Oo=5995:111<12222221$",
"7855786q676666q;$400006555511:O+5951111122222221$#",
"7q54;86;;7666686:6w06655552111:$2522122222222221O#",
"6q736446q6;q6q8666665555666;2222122225522222222= #",
"66q344448;557;454645555666222222255552222222221o #",
"667733346777373;36w;<6666466666>28885522522112=  #",
"7qq63644;7;744;34qr6;;;3;22622>>15888885522522#  #",
"77774344q;66;3;44qew6;;3;4642;;;:288888885844:.. #",
"777q743355;;;;;38qeww6;;466;>;>;:158888888882<.. $",
"7qq78445;;4;4;34qqwweq;;68;;;>;>=159988985411<=o.$",
"77qqq6;7;;;;;;;7qrwwwwq4;;;;;>>;::2598885211111*.$",
"77q733>>>>>>>>36qqqqqq63>>>>;>;;::15885252211111$$",
"7733333333333366666333333333333311125222522121222="
};
