/* XPM */
static char *d5a0c8a7d56e428bb0ad9aa3e0a5916ckjWgZGm1GRY05znu[] = {
/* columns rows colors chars-per-pixel */
"49 49 92 1 ",
"  c #A0A0A2",
". c #A6A6A8",
"X c #A7A7A9",
"o c #A8A8AA",
"O c #A9A9AB",
"+ c #AAAAAC",
"@ c #ABABAD",
"# c #ACACAE",
"$ c #ADADAF",
"% c #AEAEB0",
"& c #AFAFB1",
"* c #B0B0B2",
"= c #B1B1B3",
"- c #B2B2B4",
"; c #B3B3B5",
": c #B4B4B6",
"> c #B5B5B7",
", c #B6B6B8",
"< c #B7B7B9",
"1 c #B8B8BA",
"2 c #B9B9BB",
"3 c #BABABC",
"4 c #BBBBBD",
"5 c gray74",
"6 c #BCBCBE",
"7 c #BDBDBF",
"8 c #BEBEC0",
"9 c #BFBFC1",
"0 c #C0C0C2",
"q c #C1C1C3",
"w c #C2C2C4",
"e c #C3C3C5",
"r c #C4C4C6",
"t c #C5C5C7",
"y c #C6C6C8",
"u c #C7C7C9",
"i c #C8C8CA",
"p c #C9C9CB",
"a c #CACACC",
"s c #CBCBCD",
"d c #CCCCCE",
"f c #CDCDCF",
"g c #CECED0",
"h c #CFCFD1",
"j c #D0D0D2",
"k c #D1D1D3",
"l c #D2D2D4",
"z c #D3D3D5",
"x c #D4D4D6",
"c c #D5D5D7",
"v c #D6D6D8",
"b c #D7D7D9",
"n c #D8D8DA",
"m c #D9D9DB",
"M c #DADADC",
"N c #DBDBDD",
"B c #DCDCDE",
"V c #DDDDDF",
"C c #DEDEE0",
"Z c #DFDFE1",
"A c #E0E0E2",
"S c #E1E1E3",
"D c #E2E2E4",
"F c #E3E3E5",
"G c #E4E4E6",
"H c #E5E5E7",
"J c #E6E6E8",
"K c #E7E7E9",
"L c #E8E8EA",
"P c #E9E9EB",
"I c #EAEAEC",
"U c #EBEBED",
"Y c #ECECEE",
"T c #EDEDEF",
"R c #EEEEF0",
"E c #EFEFF1",
"W c #F0F0F2",
"Q c #F1F1F3",
"! c #F2F2F4",
"~ c #F3F3F5",
"^ c #F4F4F6",
"/ c #F5F5F7",
"( c #F6F6F8",
") c #F7F7F9",
"_ c #F8F8FA",
"` c #F9F9FB",
"' c #FAFAFC",
"] c #FBFBFD",
"[ c #FCFCFE",
"{ c #FDFDFF",
"} c #FEFEFF",
"| c white",
/* pixels */
"|''||RLR_R'Q^DMVQ|_(|_GR'RR(QUSmD|'||'^DR''QQ(KlV",
"Q||'CMKRKU'(VtlDUQ||KlTTQC||Ds0GQQ|'UVv(^S('Rl4KV",
"|D||pD|g_MR|eg'sUQ_|Cv'VM_m_K0(Dg|K|^k|Ql'g(^8L^8",
"|RCC_|T8__pvG|Q4Q|MD('|yR|kkCR|ev|TDR_'lk|MsVD'C4",
"'DcC_|L0^U<lK(L;R^sC''|yUQedCL_4V^MMUQ'Ms|geMG(c4",
"'dQ|sM|c^ev|ypRtLCS|DlQCcDe(U2LVlUg''pQ^kU2U'eGK8",
"LR^UlgCUCVUUc4sVGDQ_vyDUUlQQv0<CGS('UgeLRcKQLp&Cl",
"QRKMvvvvMMKspeyeD|UkMvgMCVVlysp8M(LMlcVgvCDvsyets",
"|KQ(QGLkVvKlVMl4K|QRQRUgCDCvcCM8D_(URQUvMVVcmDvdy",
"DQ'RDydLCMTQv<pSUD|_DgtDCgQ'De2cvC'|QMeMMKK(U08pv",
"'l'|4d_dUgM^8;CgKUS|M2_cvReUc Dmv'g|R&LRdKyDS&kR4",
"|KcVv|Q<(KelyU^@RLMCMR|em'sygC|6s|mMCM|M8|gsVg(v*",
"'K6yL|m>TR*4m^DOKQyeKQU6C(88kD'#t|vekU|6<|g>dV|e;",
"|8v'plT0KteGyev4UM8RC0QsCDOVM@CpvQ4CK0QMyS<sv6MS;",
"LgTQp4mcD6G'0&vsR4U'yymMc8VQS0>cmeV(Qp<GMds(Q;*le",
"cDKss8yy8MS6p4*8yQDgc42ppvMl6<6>yKKct60tsgmky0220",
"QQUTQKCKTSSSKUMsU_QUQTDSRDTSVKmcCQQLQ(UvRKUCSUMMl",
"|||_QKUQTQ||CsvKR'(|(SLQUT_|QmccR''||CDRGQ'|_MkMV",
"'U||lm^SRSQ|s0UMUR_|Vs_GURC_S2CTv((|RdK^D(VQT8cQp",
"|KRQKQ(g'GkSVT|4R'U^LL|dD'kGKM|lg|UKUU|Sg|kMRM(K4",
"|UlM||Ue'Q8sQ'U*R|gv||(tL|ypS(|*C_lmQ'|gy|ltSL|c2",
"(lK(VU^yQklUvlLeKCMQKC^lKGyMMdKlMDvRQmLTmTplSsCK4",
"(v||yg'CLpT|t0KvKM(|lyQKVdD|U2eKvUR|TyM|Slm'(y8Ds",
"QQDmvdgDvUGdse>gV|UlDcyCLMGmyt6pMQQDvlglDCUMgp4sk",
"QRUCQLSlCvvyDCs4URRUKUDvmKkkddS8l|DUUCQglDvgkcm0t",
"|^'(UlmDCKRKm8ymK|(UQCvCDvQRDm0yKT|(QDlCSmQGCM4ck",
"RM'|eeDMCvKQ4<CgCKL|C6MCSCcQv#dSkDL|R4gUkCvTL28Sy",
"(DDUdRRtRDpMpCQ4RCM(Ml|dl'tSM6_pp|MKKg'D0|pvC6TS;",
"|K0dU|D&'R;eVQD#Q(ysG'|;C|e4dL|@l|v8v||p0|k;pm'k#",
"|tsLkDL<(e4MpkS*RMeMMCT8CU*yktT0gRtvDvQlyQ*pVeLg>",
"R8R|86RkK<C^82DeLyC|g4CCsly|L@dkgKs|Q&mLkM;RQ#kc6",
"MGRlp>egelUkp&*pgCUGs48gleLv0tOegvRCgy;sppLVs8O6y",
"UKCCDClvMCMgMCsyVLGMCDVkcQgcMlC8lTCVDDDsvLmvclCpy",
"|||(QRRQ'(Q(RMvSR|(^|GM^_R|QTGgDR(|(Q^DU'K|QQQpCD",
"_R||lM(DQDQ|c0KCK(_|TdURLUR|UegRM(Q|_sG'GLR|(stRl",
"'U(QCUQgUUDRvv(yUQR|SV|gM'MLDg(vl|C'(k'Ls|SDKsUQ6",
"|RMC||U8|(ysR|R;(|vS_||8T|vev||<S|KvU||lc|C6m(|M4",
"|lCQG('8'gsDvG(;TKlKTR(dUK0vVM(pvUMMLT(Cc^8lLvRC<",
"(l'|pl|MReU'8yRgGMT|vgQKDMd|G&VDkUC|ReD(vK0'(;MKt",
"KQQDvskUvKRDg84MSR^UmskDDg'Rss6sCK'RCltCSMTKMs4sl",
"(UCKlDCvCMggysxyK(DCVVUlvKsssyC4v'GCSMLscTlkstMey",
"''Q^'DgMMKQMDD<sU^|T((eMKvRKCC8eSK|QQ(vVSpQQMDked",
"RS|(veZMMMCQg&lgDVQ|SegDMlM(M;evCUQ|T0pGMCmTU4<kd",
"'MQUev'sUZgRe<'yUKC'k8|mMQsDl<UMs(MQGeQTe|plD2MQ<",
"|DsvD|U&'Ks8l'UXU(cdC''<C'g8dT|;p|VsM(|y8|Seem'v#",
"|s4DC(C&_s<ilDZXUK4mSD';vR<ellQ;k'esMv_ty'68kyKt;",
"(yC(ygUgUeyQs;DgUvy|M;(vvC<UCXClsK4RU;UQyUXl(<lG>",
"MC'Ks4glsg(De8<gvMQUly4vlsDUl<;plcL^G0;vlgSRM4&yy",
"VDlysp0ypvg8ee24kDmysseeyvle806<sCCdysy0ygMeee8<4"
};
